<svg width="50" height="2502" viewBox="0 0 50 2502" fill="none" xmlns="http://www.w3.org/2000/svg">
<path d="M25.0001 0.5L25.0002 2502" stroke="black" stroke-width="2"/>
<circle cx="25" cy="224" r="15" fill="black"/>
<path d="M32 224C32 227.866 28.866 231 25 231C21.134 231 18 227.866 18 224C18 220.134 21.134 217 25 217C28.866 217 32 220.134 32 224Z" fill="#83ADDF"/>
<circle cx="25" cy="812" r="15" fill="black"/>
<path d="M32 812C32 815.866 28.866 819 25 819C21.134 819 18 815.866 18 812C18 808.134 21.134 805 25 805C28.866 805 32 808.134 32 812Z" fill="#83ADDF"/>
<circle cx="25" cy="1418" r="15" fill="black"/>
<path d="M32 1418C32 1421.87 28.866 1425 25 1425C21.134 1425 18 1421.87 18 1418C18 1414.13 21.134 1411 25 1411C28.866 1411 32 1414.13 32 1418Z" fill="#83ADDF"/>
<circle cx="25" cy="1961" r="15" fill="black"/>
<path d="M32 1961C32 1964.87 28.866 1968 25 1968C21.134 1968 18 1964.87 18 1961C18 1957.13 21.134 1954 25 1954C28.866 1954 32 1957.13 32 1961Z" fill="#83ADDF"/>
</svg>
